PathFileType	4	(X/Y/Z)	./resultDataOpenSim/trcMotMarkerGrf/sub06/qtm-12-07.trc
DataRate	CameraRate	NumFrames	NumMarkers	Units	OrigDataRate	OrigDataStartFrame	OrigNumFrames
250.000000	250.000000	13	24	m	250.000000	1	502
Frame#	Time	L.Toe.Tip			R.Toe.Tip			L.Ankle.Lat			R.Ankle.Lat			L.Ankle.Med			R.Ankle.Med			L.Heel			R.Heel			L.Knee.Lat			R.Knee.Lat			L.Knee.Med			R.Knee.Med			L.Thigh.Upper			R.Thigh.Upper			L.ASIS			R.ASIS			V.Sacral			L.Acromium			R.Acromium			C7			L.Elbow			R.Elbow			L.Wrist.Lat			R.Wrist.Lat
		X1	Y1	Z1	X2	Y2	Z2	X3	Y3	Z3	X4	Y4	Z4	X5	Y5	Z5	X6	Y6	Z6	X7	Y7	Z7	X8	Y8	Z8	X9	Y9	Z9	X10	Y10	Z10	X11	Y11	Z11	X12	Y12	Z12	X13	Y13	Z13	X14	Y14	Z14	X15	Y15	Z15	X16	Y16	Z16	X17	Y17	Z17	X18	Y18	Z18	X19	Y19	Z19	X20	Y20	Z20	X21	Y21	Z21	X22	Y22	Z22	X23	Y23	Z23	X24	Y24	Z24

1	0	-1.5826256	0.032956647	-0.085397773	-0.98336085	0.12266734	0.11732432	-1.7030884	0.071123252	-0.10316599	-1.1105313	0.088099686	0.1265989	-1.6967757	0.085111483	-0.018828301	-1.0993036	0.11749269	0.041880258	NaN	NaN	NaN	-1.14347	0.042221965	0.054347918	-1.5484054	0.40938004	-0.12459737	-1.2501411	0.45016769	0.12815462	-1.5595891	0.41510929	-0.0051214259	-1.2599879	0.42661759	-0.0028686591	-1.4562618	0.78464979	-0.19159567	-1.4301521	0.77752032	0.15682518	-1.3713089	0.82498036	-0.15347383	-1.3471746	0.83074397	0.092295332	-1.5340955	0.9095184	-0.0033752571	-1.3691178	1.3186806	-0.1996494	-1.387972	1.2940328	0.16214684	-1.4538115	1.3499448	-0.020482624	-1.3740333	0.99866486	-0.28786076	-1.5465241	1.0202849	0.21870175	-1.1633505	0.8719362	-0.23893605	-1.4672686	0.78805198	0.24113358
2	0.004	-1.5825987	0.032913953	-0.08538576	-0.97253464	0.12562609	0.1166158	-1.7028194	0.071702507	-0.10311296	-1.0993566	0.08875875	0.12566798	-1.6953495	0.085699661	-0.018880799	-1.0883757	0.11871004	0.041123287	NaN	NaN	NaN	-1.1311449	0.042634159	0.053378844	-1.5450117	0.40865769	-0.12456244	-1.2440082	0.4489116	0.12794007	-1.5556732	0.41445428	-0.0051257614	-1.2536199	0.42541043	-0.003306407	-1.4511517	0.78332053	-0.19112433	-1.4239597	0.77562019	0.15678577	-1.3658184	0.8234333	-0.15361468	-1.3408111	0.82907383	0.092302719	-1.5283359	0.90819466	-0.0029881765	-1.3633795	1.3171114	-0.19937238	-1.3827223	1.2924989	0.16253596	-1.4482006	1.3485226	-0.020365829	-1.3669381	0.99696533	-0.28732051	-1.5413559	1.0186283	0.21776761	-1.1561394	0.87111412	-0.23771948	-1.4646709	0.78649489	0.24152184
3	0.008	-1.5825615	0.032872301	-0.085389218	-0.96185532	0.12842807	0.1157641	-1.7024921	0.07232376	-0.10306609	-1.0884451	0.08933107	0.12471834	-1.6939678	0.086314584	-0.018935674	-1.0777405	0.11982981	0.040325844	NaN	NaN	NaN	-1.1192338	0.043010206	0.052358403	-1.5415324	0.40794295	-0.12454873	-1.2377297	0.44768421	0.12776689	-1.5516615	0.41374474	-0.0051087681	-1.2471763	0.42422725	-0.0037343041	-1.4460485	0.78195598	-0.1907317	-1.4176568	0.77382196	0.15682518	-1.3602979	0.82190743	-0.15371998	-1.3344227	0.82741261	0.092290561	-1.5225665	0.90686985	-0.0026161724	-1.3576007	1.3155579	-0.19907616	-1.3774142	1.2909833	0.16292592	-1.4425384	1.3471344	-0.020174969	-1.3598629	0.99529676	-0.28680601	-1.5361225	1.0170133	0.21686462	-1.1489531	0.87026821	-0.23649536	-1.4621348	0.78493674	0.2418868
4	0.012	-1.582514	0.032831685	-0.085411102	-0.95152334	0.13087035	0.11476977	-1.7021037	0.073023183	-0.10302609	-1.0779649	0.089755679	0.12373488	-1.6930961	0.08692159	-0.018880594	-1.0675726	0.12077291	0.03946133	NaN	NaN	NaN	-1.1080135	0.043308297	0.051265158	-1.5379221	0.40723125	-0.1245483	-1.2312503	0.44650243	0.12762276	-1.5475016	0.41299363	-0.0050736226	-1.2406081	0.42309703	-0.0041464216	-1.4409521	0.78055797	-0.19043173	-1.4112024	0.77214855	0.1569423	-1.3547285	0.8204112	-0.15378549	-1.3279772	0.82577963	0.092256279	-1.5167752	0.90555775	-0.0022623734	-1.3517536	1.3140312	-0.19876405	-1.3720092	1.2894915	0.16332347	-1.4367944	1.3457868	-0.019894368	-1.3528207	0.99367118	-0.28633527	-1.5306961	1.0154011	0.21594882	-1.1418072	0.86937645	-0.23527217	-1.4595352	0.78339937	0.2422415
5	0.016	-1.5824646	0.032792227	-0.085445009	-0.94176534	0.13275626	0.11373743	-1.7017027	0.073818489	-0.10300257	-1.0680114	0.09000421	0.12270614	-1.6935109	0.087396819	-0.018496928	-1.0579414	0.12148601	0.038523551	NaN	NaN	NaN	-1.0975879	0.043480936	0.050128598	-1.5341849	0.40651957	-0.12454032	-1.2246074	0.44537645	0.1274577	-1.5432149	0.41224672	-0.0050334398	-1.2339107	0.4220499	-0.0045336254	-1.4358386	0.7791644	-0.19016783	-1.4046284	0.77057774	0.15707808	-1.3491195	0.81895622	-0.15383209	-1.3214737	0.82419599	0.092203881	-1.5109611	0.90429295	-0.0019157176	-1.3458374	1.3125374	-0.1984569	-1.3664998	1.2880237	0.16373262	-1.4309788	1.3444755	-0.019568914	-1.345823	0.99208759	-0.28588622	-1.5250249	1.0137572	0.21499345	-1.1347195	0.86842667	-0.23406866	-1.4566097	0.78193414	0.24262881
6	0.02	-1.5824229	0.032754602	-0.085483837	-0.9326809	0.13401529	0.11270221	-1.7013276	0.074709962	-0.10301815	-1.0586377	0.090066685	0.12161864	-1.6955014	0.087653225	-0.01769209	-1.0488529	0.12193403	0.037520521	NaN	NaN	NaN	-1.0879338	0.043484272	0.048999633	-1.5303331	0.40581841	-0.12451971	-1.2178263	0.44431724	0.12724078	-1.5388246	0.41150929	-0.0049943711	-1.2270892	0.42111425	-0.0048873618	-1.430654	0.77781784	-0.18987151	-1.3979687	0.76910215	0.15719679	-1.3434789	0.81755738	-0.1538733	-1.3149397	0.82267297	0.092130434	-1.5051198	0.90310901	-0.001556442	-1.3398568	1.3110783	-0.19816533	-1.3608859	1.2865832	0.16415204	-1.4251101	1.3432066	-0.019248895	-1.3388642	0.99054413	-0.28540744	-1.5193051	1.0121963	0.21414117	-1.127701	0.86742604	-0.2328995	-1.4532125	0.78057962	0.24307441
7	0.024	-1.5823946	0.032718424	-0.085522179	-0.9242222	0.13470856	0.11159585	-1.7009257	0.075691951	-0.10309012	-1.0498696	0.089932894	0.12046658	-1.6980434	0.087879311	-0.016786137	-1.0403009	0.12208954	0.036462079	NaN	NaN	NaN	-1.0790055	0.043292586	0.047900595	-1.5263565	0.40514156	-0.12450054	-1.2108712	0.44334669	0.12698015	-1.5343133	0.41076042	-0.0049634256	-1.2201419	0.42032125	-0.0052142127	-1.4253673	0.77653296	-0.18950975	-1.3912179	0.76774743	0.15731901	-1.3377937	0.81621911	-0.15390139	-1.308393	0.82121888	0.092034275	-1.4992443	0.90201571	-0.0011570404	-1.3338165	1.3096588	-0.19787685	-1.3551674	1.2851807	0.16458136	-1.4191995	1.3419883	-0.018961385	-1.3319353	0.98904477	-0.28486579	-1.5139845	1.0109956	0.21371723	-1.1207586	0.86639389	-0.23176986	-1.4494603	0.779328	0.24355682
8	0.028	-1.5823801	0.032682061	-0.085557196	-0.91630861	0.13492055	0.11035242	-1.700356	0.076754622	-0.10321887	-1.0416999	0.089585743	0.11926355	-1.6994223	0.0884679	-0.016323507	-1.032286	0.12193182	0.035348996	NaN	NaN	NaN	-1.0707835	0.042895421	0.046824224	-1.5222178	0.40449082	-0.1245036	-1.203692	0.44249418	0.12669474	-1.5296644	0.41000297	-0.0049481694	-1.2130687	0.41969968	-0.0055306377	-1.4199926	0.77529796	-0.18908645	-1.3843036	0.76656293	0.15749398	-1.3320381	0.81493613	-0.15390214	-1.301796	0.81984767	0.091926228	-1.4933272	0.90099969	-0.00067314259	-1.327722	1.3082868	-0.19756844	-1.3493453	1.2838301	0.16502469	-1.4132459	1.340824	-0.018694077	-1.3250384	0.9875963	-0.28426457	-1.5094213	1.0103699	0.21397671	-1.1138907	0.86533859	-0.23067468	-1.4456079	0.77813665	0.24402966
9	0.032	-1.5823745	0.032644397	-0.085589456	-0.90889867	0.13469422	0.10895535	-1.6995248	0.077882847	-0.10339471	-1.0341007	0.089007755	0.11803242	-1.698901	0.089603778	-0.01651881	-1.0248126	0.12145118	0.034176558	NaN	NaN	NaN	-1.0632645	0.042282569	0.045768137	-1.5178804	0.40385969	-0.1245404	-1.1962894	0.44177602	0.12638283	-1.5248842	0.40925206	-0.004947304	-1.2058827	0.41926479	-0.0058377392	-1.4145564	0.77410737	-0.18862578	-1.3771735	0.76558004	0.15774724	-1.3261989	0.8137077	-0.15386368	-1.2950766	0.81857556	0.09182449	-1.4873564	0.90003824	-5.213783e-05	-1.3215795	1.3069691	-0.19722184	-1.3434283	1.282541	0.16548809	-1.4072317	1.3397218	-0.018378209	-1.3181811	0.98620391	-0.28362412	-1.5053806	1.0101605	0.2147386	-1.1070922	0.86425631	-0.22960501	-1.4418484	0.77696302	0.2444604
10	0.036	-1.5823708	0.032605608	-0.085620941	-0.90198645	0.13403887	0.10741333	-1.698477	0.079074336	-0.10361199	-1.0270512	0.088191805	0.11678708	-1.6970662	0.091130425	-0.017149082	-1.0178873	0.12065634	0.032944196	NaN	NaN	NaN	-1.0564422	0.041447821	0.044741196	-1.5133472	0.40324886	-0.12460243	-1.1887171	0.4411891	0.12601954	-1.5199853	0.40850405	-0.0049599164	-1.198608	0.41901053	-0.006114037	-1.4090688	0.77297144	-0.18814878	-1.3698615	0.76478306	0.15806467	-1.3202864	0.81254562	-0.15377243	-1.2882023	0.81741345	0.091742783	-1.4813101	0.89910881	0.00072491961	-1.3153974	1.3057083	-0.1968286	-1.3374314	1.2813151	0.16597373	-1.4011422	1.3386904	-0.01795386	-1.3113654	0.98487027	-0.28295054	-1.5010975	1.0098934	0.21544185	-1.1003643	0.86314434	-0.22855305	-1.4382221	0.77579602	0.24484351
11	0.04	-1.5823619	0.032567207	-0.0856534	-0.89558022	0.13295094	0.10574137	-1.6973214	0.08034808	-0.10387925	-1.0205508	0.087145297	0.1155325	-1.6948185	0.092800994	-0.017910001	-1.0115163	0.11957694	0.031656308	NaN	NaN	NaN	-1.0503054	0.040403638	0.043739489	-1.5086563	0.40266541	-0.12467275	-1.1810418	0.44072086	0.12558321	-1.5149673	0.4077465	-0.0049945674	-1.1912716	0.41891378	-0.0063457589	-1.4035233	0.77190044	-0.18765909	-1.3623363	0.76416088	0.15844457	-1.3143163	0.8114632	-0.15362367	-1.2811918	0.81636485	0.0916841	-1.4751611	0.89819757	0.0016185421	-1.3091831	1.3045084	-0.19639352	-1.3313703	1.2801503	0.16647863	-1.3949867	1.3377257	-0.017441559	-1.3045884	0.98359969	-0.28223134	-1.4960099	1.0092327	0.21568296	-1.0937109	0.86200264	-0.22751551	-1.4346699	0.77465457	0.24519003
12	0.044	-1.5823405	0.03253218	-0.08568907	-0.88968584	0.13142715	0.10395932	-1.6961307	0.081723566	-0.10421387	-1.0146079	0.085882106	0.11426701	-1.6926875	0.09446976	-0.01864444	-1.0056991	0.11824543	0.030320506	NaN	NaN	NaN	-1.0448412	0.039174427	0.042742	-1.5038345	0.40210422	-0.12474467	-1.1733125	0.44035467	0.12507909	-1.5098053	0.4069715	-0.0050577324	-1.183902	0.41894931	-0.0065550902	-1.3979088	0.77090018	-0.18715328	-1.3544654	0.76373921	0.15891648	-1.3083038	0.81045758	-0.15343653	-1.2740805	0.81542642	0.091641768	-1.4688877	0.8973072	0.0025659371	-1.3029371	1.3033818	-0.19593355	-1.3252512	1.2790474	0.16700133	-1.3887866	1.3368163	-0.016905524	-1.2978506	0.9824009	-0.28145879	-1.4901675	1.0082157	0.21550405	-1.0871333	0.86083372	-0.22649709	-1.43112	0.77356188	0.24551691
13	0.048	-1.5822995	0.032503665	-0.08573206	-0.88429906	0.12947558	0.10209434	-1.694921	0.083205771	-0.10462222	-1.0092282	0.084412899	0.11297216	-1.6907556	0.096104072	-0.019329527	-1.0004237	0.11667894	0.028947954	NaN	NaN	NaN	-1.0400296	0.037779841	0.041730198	-1.4988807	0.40154804	-0.12481637	-1.1655405	0.44007527	0.12453363	-1.5044644	0.40617217	-0.0051428537	-1.1765257	0.41909616	-0.0067781004	-1.3922168	0.76997373	-0.18663218	-1.34621	0.76352794	0.15949474	-1.302285	0.80950894	-0.15324428	-1.2669219	0.81459672	0.09160966	-1.462484	0.89645228	0.003529657	-1.2966553	1.3023451	-0.19546007	-1.3190688	1.2780135	0.16754633	-1.3825532	1.3359557	-0.016383021	-1.2911573	0.9812834	-0.28063733	-1.4839518	1.0070867	0.21517798	-1.0806323	0.85964475	-0.2255034	-1.4274938	0.77253777	0.24584296
